<?xml version="1.0" encoding="UTF-8"?>
<svg xmlns="http://www.w3.org/2000/svg" version="1.1" width="192px" height="192px" style="shape-rendering:geometricPrecision; text-rendering:geometricPrecision; image-rendering:optimizeQuality; fill-rule:evenodd; clip-rule:evenodd">
<g><path fill="#e8e7ea" d="M -0.5,-0.5 C 63.5,-0.5 127.5,-0.5 191.5,-0.5C 191.5,63.5 191.5,127.5 191.5,191.5C 127.5,191.5 63.5,191.5 -0.5,191.5C -0.5,127.5 -0.5,63.5 -0.5,-0.5 Z"/></g>
<g><path fill="#0b0b0f" d="M 29.5,28.5 C 34.5,28.5 39.5,28.5 44.5,28.5C 44.5,33.8333 44.5,39.1667 44.5,44.5C 39.5,44.5 34.5,44.5 29.5,44.5C 29.5,39.1667 29.5,33.8333 29.5,28.5 Z"/></g>
<g><path fill="#0b0b0f" d="M 144.5,28.5 C 149.5,28.5 154.5,28.5 159.5,28.5C 159.5,33.8333 159.5,39.1667 159.5,44.5C 154.5,44.5 149.5,44.5 144.5,44.5C 144.5,39.1667 144.5,33.8333 144.5,28.5 Z"/></g>
<g><path fill="#040408" d="M 139.5,114.5 C 131.167,114.5 122.833,114.5 114.5,114.5C 114.5,120.167 114.5,125.833 114.5,131.5C 110.167,131.5 105.833,131.5 101.5,131.5C 101.5,130.5 101.5,129.5 101.5,128.5C 101.5,120.5 101.5,112.5 101.5,104.5C 110.167,104.5 118.833,104.5 127.5,104.5C 127.5,98.8333 127.5,93.1667 127.5,87.5C 127.5,73.1667 127.5,58.8333 127.5,44.5C 117.167,44.5 106.833,44.5 96.5,44.5C 84.8333,44.5 73.1667,44.5 61.5,44.5C 61.5,41.1667 61.5,37.8333 61.5,34.5C 87.5,34.5 113.5,34.5 139.5,34.5C 139.5,61.1667 139.5,87.8333 139.5,114.5 Z"/></g>
<g><path fill="#c55967" d="M 96.5,44.5 C 106.833,44.5 117.167,44.5 127.5,44.5C 127.5,58.8333 127.5,73.1667 127.5,87.5C 125.5,87.5 123.5,87.5 121.5,87.5C 121.5,89.8333 121.5,92.1667 121.5,94.5C 119.5,94.5 117.5,94.5 115.5,94.5C 115.5,96.5 115.5,98.5 115.5,100.5C 110.833,100.5 106.167,100.5 101.5,100.5C 101.5,98.5 101.5,96.5 101.5,94.5C 103.5,94.5 105.5,94.5 107.5,94.5C 107.5,90.8333 107.5,87.1667 107.5,83.5C 110.167,83.5 112.833,83.5 115.5,83.5C 115.5,79.5 115.5,75.5 115.5,71.5C 112.833,71.5 110.167,71.5 107.5,71.5C 107.5,67.8333 107.5,64.1667 107.5,60.5C 109.833,60.5 112.167,60.5 114.5,60.5C 114.5,58.8333 114.5,57.1667 114.5,55.5C 112.167,55.5 109.833,55.5 107.5,55.5C 107.5,53.5 107.5,51.5 107.5,49.5C 103.833,49.5 100.167,49.5 96.5,49.5C 96.5,47.8333 96.5,46.1667 96.5,44.5 Z"/></g>
<g><path fill="#030308" d="M 61.5,46.5 C 61.5,47.5 61.5,48.5 61.5,49.5C 61.5,66.1667 61.5,82.8333 61.5,99.5C 57.5,99.5 53.5,99.5 49.5,99.5C 49.5,81.8333 49.5,64.1667 49.5,46.5C 53.5,46.5 57.5,46.5 61.5,46.5 Z"/></g>
<g><path fill="#fcdc98" d="M 62.5,49.5 C 65.5,49.5 68.5,49.5 71.5,49.5C 71.5,51.1667 71.5,52.8333 71.5,54.5C 81.5,54.5 91.5,54.5 101.5,54.5C 101.5,66.1667 101.5,77.8333 101.5,89.5C 99.8333,89.5 98.1667,89.5 96.5,89.5C 96.5,91.1667 96.5,92.8333 96.5,94.5C 95.5,94.5 94.5,94.5 93.5,94.5C 89.8333,94.5 86.1667,94.5 82.5,94.5C 82.5,90.5 82.5,86.5 82.5,82.5C 75.8333,82.5 69.1667,82.5 62.5,82.5C 62.5,71.5 62.5,60.5 62.5,49.5 Z"/></g>
<g><path fill="#e48652" d="M 61.5,44.5 C 73.1667,44.5 84.8333,44.5 96.5,44.5C 96.5,46.1667 96.5,47.8333 96.5,49.5C 100.167,49.5 103.833,49.5 107.5,49.5C 107.5,51.5 107.5,53.5 107.5,55.5C 109.833,55.5 112.167,55.5 114.5,55.5C 114.5,57.1667 114.5,58.8333 114.5,60.5C 112.167,60.5 109.833,60.5 107.5,60.5C 107.5,64.1667 107.5,67.8333 107.5,71.5C 110.167,71.5 112.833,71.5 115.5,71.5C 115.5,75.5 115.5,79.5 115.5,83.5C 112.833,83.5 110.167,83.5 107.5,83.5C 107.5,87.1667 107.5,90.8333 107.5,94.5C 105.5,94.5 103.5,94.5 101.5,94.5C 101.5,96.5 101.5,98.5 101.5,100.5C 99.5,100.5 97.5,100.5 95.5,100.5C 94.8333,100.5 94.1667,100.5 93.5,100.5C 93.5,98.5 93.5,96.5 93.5,94.5C 94.5,94.5 95.5,94.5 96.5,94.5C 96.5,92.8333 96.5,91.1667 96.5,89.5C 98.1667,89.5 99.8333,89.5 101.5,89.5C 101.5,77.8333 101.5,66.1667 101.5,54.5C 91.5,54.5 81.5,54.5 71.5,54.5C 71.5,52.8333 71.5,51.1667 71.5,49.5C 68.5,49.5 65.5,49.5 62.5,49.5C 62.1667,49.5 61.8333,49.5 61.5,49.5C 61.5,48.5 61.5,47.5 61.5,46.5C 61.5,45.8333 61.5,45.1667 61.5,44.5 Z"/></g>
<g><path fill="#7fc7a6" d="M 62.5,82.5 C 69.1667,82.5 75.8333,82.5 82.5,82.5C 82.5,86.5 82.5,90.5 82.5,94.5C 86.1667,94.5 89.8333,94.5 93.5,94.5C 93.5,96.5 93.5,98.5 93.5,100.5C 92.5489,99.0813 92.2155,97.4147 92.5,95.5C 87.3334,95.2272 82.3334,95.2272 77.5,95.5C 77.5,96.5 77.5,97.5 77.5,98.5C 74.2206,99.0306 72.8872,101.031 73.5,104.5C 72.5655,103.432 72.2322,102.099 72.5,100.5C 69.3752,99.5206 66.0419,99.1872 62.5,99.5C 62.5,93.8333 62.5,88.1667 62.5,82.5 Z"/></g>
<g><path fill="#74c6b5" d="M 93.5,100.5 C 94.1667,100.5 94.8333,100.5 95.5,100.5C 93.6221,101.208 91.9555,102.374 90.5,104C 89.2068,104.49 87.8734,104.657 86.5,104.5C 82.1667,104.5 77.8333,104.5 73.5,104.5C 72.8872,101.031 74.2206,99.0306 77.5,98.5C 77.5,97.5 77.5,96.5 77.5,95.5C 82.3334,95.2272 87.3334,95.2272 92.5,95.5C 92.2155,97.4147 92.5489,99.0813 93.5,100.5 Z"/></g>
<g><path fill="#6e79bb" d="M 127.5,87.5 C 127.5,93.1667 127.5,98.8333 127.5,104.5C 118.833,104.5 110.167,104.5 101.5,104.5C 101.5,103.167 101.5,101.833 101.5,100.5C 106.167,100.5 110.833,100.5 115.5,100.5C 115.5,98.5 115.5,96.5 115.5,94.5C 117.5,94.5 119.5,94.5 121.5,94.5C 121.5,92.1667 121.5,89.8333 121.5,87.5C 123.5,87.5 125.5,87.5 127.5,87.5 Z"/></g>
<g><path fill="#6d7763" d="M 61.5,49.5 C 61.8333,49.5 62.1667,49.5 62.5,49.5C 62.5,60.5 62.5,71.5 62.5,82.5C 62.5,88.1667 62.5,93.8333 62.5,99.5C 66.0419,99.1872 69.3752,99.5206 72.5,100.5C 69.1667,100.5 65.8333,100.5 62.5,100.5C 62.1667,100.5 61.8333,100.5 61.5,100.5C 57.2984,100.817 53.2984,100.483 49.5,99.5C 53.5,99.5 57.5,99.5 61.5,99.5C 61.5,82.8333 61.5,66.1667 61.5,49.5 Z"/></g>
<g><path fill="#67bcc6" d="M 95.5,100.5 C 97.5,100.5 99.5,100.5 101.5,100.5C 101.5,101.833 101.5,103.167 101.5,104.5C 101.5,112.5 101.5,120.5 101.5,128.5C 99.1667,128.5 96.8333,128.5 94.5,128.5C 94.5,129.5 94.5,130.5 94.5,131.5C 91.8333,131.5 89.1667,131.5 86.5,131.5C 86.5,122.5 86.5,113.5 86.5,104.5C 87.8734,104.657 89.2068,104.49 90.5,104C 91.9555,102.374 93.6221,101.208 95.5,100.5 Z"/></g>
<g><path fill="#030408" d="M 62.5,100.5 C 65.8333,100.5 69.1667,100.5 72.5,100.5C 72.2322,102.099 72.5655,103.432 73.5,104.5C 77.8333,104.5 82.1667,104.5 86.5,104.5C 86.5,113.5 86.5,122.5 86.5,131.5C 82.1667,131.5 77.8333,131.5 73.5,131.5C 73.5,126.167 73.5,120.833 73.5,115.5C 70.0381,114.518 66.3714,114.185 62.5,114.5C 62.5,109.833 62.5,105.167 62.5,100.5 Z"/></g>
<g><path fill="#424247" d="M 61.5,100.5 C 61.8333,100.5 62.1667,100.5 62.5,100.5C 62.5,105.167 62.5,109.833 62.5,114.5C 66.3714,114.185 70.0381,114.518 73.5,115.5C 73.1667,115.5 72.8333,115.5 72.5,115.5C 68.8333,115.5 65.1667,115.5 61.5,115.5C 61.5,110.5 61.5,105.5 61.5,100.5 Z"/></g>
<g><path fill="#7a797d" d="M 139.5,114.5 C 131.684,115.492 123.684,115.826 115.5,115.5C 115.5,120.833 115.5,126.167 115.5,131.5C 123.684,131.174 131.684,131.508 139.5,132.5C 131.5,132.5 123.5,132.5 115.5,132.5C 115.167,132.5 114.833,132.5 114.5,132.5C 114.5,132.167 114.5,131.833 114.5,131.5C 114.5,125.833 114.5,120.167 114.5,114.5C 122.833,114.5 131.167,114.5 139.5,114.5 Z"/></g>
<g><path fill="#5279c0" d="M 101.5,128.5 C 101.5,129.5 101.5,130.5 101.5,131.5C 99.1667,131.5 96.8333,131.5 94.5,131.5C 94.5,130.5 94.5,129.5 94.5,128.5C 96.8333,128.5 99.1667,128.5 101.5,128.5 Z"/></g>
<g><path fill="#5e6a74" d="M 73.5,132.5 C 73.5,132.167 73.5,131.833 73.5,131.5C 77.8333,131.5 82.1667,131.5 86.5,131.5C 89.1667,131.5 91.8333,131.5 94.5,131.5C 94.5,131.833 94.5,132.167 94.5,132.5C 92.1667,132.5 89.8333,132.5 87.5,132.5C 87.5,137.5 87.5,142.5 87.5,147.5C 86.5128,142.695 86.1795,137.695 86.5,132.5C 82.1667,132.5 77.8333,132.5 73.5,132.5 Z"/></g>
<g><path fill="#3b3d45" d="M 94.5,132.5 C 94.5,132.167 94.5,131.833 94.5,131.5C 96.8333,131.5 99.1667,131.5 101.5,131.5C 105.833,131.5 110.167,131.5 114.5,131.5C 114.5,131.833 114.5,132.167 114.5,132.5C 110.167,132.5 105.833,132.5 101.5,132.5C 101.821,137.695 101.487,142.695 100.5,147.5C 100.5,142.5 100.5,137.5 100.5,132.5C 98.5,132.5 96.5,132.5 94.5,132.5 Z"/></g>
<g><path fill="#020207" d="M 49.5,132.5 C 57.1667,132.5 64.8333,132.5 72.5,132.5C 72.5,137.5 72.5,142.5 72.5,147.5C 64.8333,147.5 57.1667,147.5 49.5,147.5C 49.5,142.5 49.5,137.5 49.5,132.5 Z"/></g>
<g><path fill="#010206" d="M 94.5,132.5 C 96.5,132.5 98.5,132.5 100.5,132.5C 100.5,137.5 100.5,142.5 100.5,147.5C 96.1667,147.5 91.8333,147.5 87.5,147.5C 87.5,142.5 87.5,137.5 87.5,132.5C 89.8333,132.5 92.1667,132.5 94.5,132.5 Z"/></g>
<g><path fill="#040408" d="M 115.5,132.5 C 123.5,132.5 131.5,132.5 139.5,132.5C 139.5,137.5 139.5,142.5 139.5,147.5C 131.5,147.5 123.5,147.5 115.5,147.5C 115.5,142.5 115.5,137.5 115.5,132.5 Z"/></g>
<g><path fill="#a8a6ac" d="M 72.5,115.5 C 72.8333,115.5 73.1667,115.5 73.5,115.5C 73.5,120.833 73.5,126.167 73.5,131.5C 73.5,131.833 73.5,132.167 73.5,132.5C 73.5,137.833 73.5,143.167 73.5,148.5C 65.3159,148.826 57.3159,148.492 49.5,147.5C 57.1667,147.5 64.8333,147.5 72.5,147.5C 72.5,142.5 72.5,137.5 72.5,132.5C 64.8333,132.5 57.1667,132.5 49.5,132.5C 56.9818,131.508 64.6484,131.175 72.5,131.5C 72.5,126.167 72.5,120.833 72.5,115.5 Z"/></g>
<g><path fill="#09090d" d="M 29.5,146.5 C 34.5,146.5 39.5,146.5 44.5,146.5C 44.5,152.167 44.5,157.833 44.5,163.5C 39.5,163.5 34.5,163.5 29.5,163.5C 29.5,157.833 29.5,152.167 29.5,146.5 Z"/></g>
<g><path fill="#09090d" d="M 144.5,146.5 C 149.5,146.5 154.5,146.5 159.5,146.5C 159.5,152.167 159.5,157.833 159.5,163.5C 154.5,163.5 149.5,163.5 144.5,163.5C 144.5,157.833 144.5,152.167 144.5,146.5 Z"/></g>
</svg>
